<?xml version="1.0" standalone="no"?>
<!DOCTYPE svg PUBLIC "-//W3C//DTD SVG 20010904//EN"
 "http://www.w3.org/TR/2001/REC-SVG-20010904/DTD/svg10.dtd">
<svg version="1.0" xmlns="http://www.w3.org/2000/svg"
 width="1614.000000pt" height="1282.000000pt" viewBox="0 0 1614.000000 1282.000000"
 preserveAspectRatio="xMidYMid meet">

<g transform="translate(0.000000,1282.000000) scale(0.100000,-0.100000)"
fill="#000000" stroke="none">
<path d="M5670 10574 c-25 -7 -76 -22 -115 -34 -38 -12 -89 -26 -112 -32 -24
-5 -43 -13 -43 -18 0 -5 17 -19 38 -31 20 -13 39 -26 42 -30 4 -5 144 -100
198 -134 9 -5 22 -15 29 -22 7 -6 18 -13 25 -15 10 -4 10 -19 -1 -71 -15 -78
-6 -152 36 -277 32 -97 44 -118 87 -160 41 -40 41 -41 22 -83 -8 -18 -22 -54
-32 -82 -9 -27 -21 -54 -24 -60 -4 -5 -20 -44 -35 -85 -15 -41 -31 -79 -35
-85 -4 -5 -10 -22 -13 -36 l-7 -26 103 38 c56 22 116 46 134 54 17 8 40 15 50
15 11 0 28 9 38 20 10 11 15 20 11 20 -4 0 1 12 12 28 10 15 26 46 35 69 9 23
26 63 38 87 14 31 20 58 16 83 -5 40 -43 184 -57 218 -5 11 -11 31 -14 45 -2
14 -9 41 -14 60 -95 344 -116 415 -123 418 -4 2 -56 34 -115 73 -59 38 -112
68 -118 68 -6 -1 -31 -7 -56 -15z m338 -1080 c12 -8 26 -13 31 -9 18 11 22
-15 6 -42 l-16 -28 4 26 c4 27 -1 29 -60 15 -36 -8 -36 -32 0 -39 20 -3 20 -4
4 -11 -44 -20 -78 71 -35 92 32 15 40 14 66 -4z"/>
<path d="M6332 10383 c-13 -2 -43 -23 -67 -46 -32 -32 -47 -57 -60 -101 -16
-56 -16 -63 -1 -113 61 -191 270 -207 356 -28 59 122 -26 279 -156 289 -27 3
-59 2 -72 -1z m125 -59 c-3 -3 -12 -4 -19 -1 -8 3 -5 6 6 6 11 1 17 -2 13 -5z
m25 -219 c-3 -16 0 -25 8 -25 7 0 10 7 6 15 -3 9 0 15 9 15 22 0 18 -20 -7
-41 -23 -21 -33 -24 -23 -10 3 5 -2 16 -10 24 -18 19 -19 34 -2 40 22 9 24 7
19 -18z m-225 -7 c-3 -8 -6 -5 -6 6 -1 11 2 17 5 13 3 -3 4 -12 1 -19z"/>
<path d="M9655 10341 c-59 -15 -106 -44 -148 -91 -87 -97 -105 -229 -53 -393
31 -100 32 -173 1 -307 -15 -63 -16 -84 -6 -130 12 -58 46 -124 59 -116 4 2
16 28 27 57 26 67 98 146 169 184 57 31 66 47 46 86 -7 12 -21 19 -40 19 -37
0 -99 53 -126 109 -10 22 -31 47 -46 56 -27 16 -35 34 -21 49 4 3 8 35 9 69 2
72 20 116 68 172 l34 40 29 -25 c15 -14 48 -36 73 -49 25 -14 70 -42 102 -63
55 -39 57 -39 82 -23 35 23 56 13 56 -25 0 -21 -8 -38 -25 -53 -22 -19 -26
-32 -31 -112 -5 -69 -3 -98 9 -127 l15 -36 110 -1 c131 0 248 -27 302 -70 19
-15 52 -53 74 -85 33 -49 40 -55 54 -44 43 36 55 144 23 213 -25 55 -54 79
-133 110 -93 37 -114 61 -129 147 -17 93 -39 123 -129 170 -103 55 -132 78
-186 154 -26 36 -64 77 -85 90 -43 27 -132 39 -184 25z"/>
<path d="M8970 10163 c-25 -14 -65 -37 -90 -51 -25 -13 -49 -28 -55 -32 -5 -4
-35 -21 -65 -37 -30 -17 -73 -40 -95 -53 -22 -13 -65 -37 -95 -53 -30 -17
-113 -64 -184 -104 -71 -40 -130 -73 -131 -73 -12 0 -114 -69 -108 -73 4 -3
70 -18 145 -33 76 -15 139 -33 142 -39 4 -10 -24 -42 -178 -205 -34 -36 -133
-141 -221 -235 -88 -93 -192 -204 -231 -245 -40 -41 -84 -90 -99 -108 -25 -30
-32 -33 -65 -27 -24 4 -46 2 -59 -6 -18 -12 -26 -8 -83 51 -415 427 -399 409
-392 435 10 39 -4 73 -34 88 -49 25 -92 -6 -92 -67 0 -32 -6 -45 -27 -64 -16
-13 -55 -49 -88 -80 -202 -192 -501 -474 -655 -618 -46 -43 -129 -122 -185
-175 -55 -52 -172 -162 -260 -245 -88 -82 -172 -161 -187 -176 -24 -25 -32
-27 -73 -21 -51 7 -36 -7 -195 188 -101 123 -104 128 -163 197 -43 52 -47 60
-41 95 12 79 -69 126 -115 66 -14 -17 -21 -38 -19 -59 2 -30 -8 -42 -107 -136
-61 -56 -162 -152 -225 -213 -63 -60 -194 -184 -290 -275 -96 -91 -213 -201
-260 -246 -221 -210 -206 -199 -249 -195 -65 4 -101 -52 -71 -109 39 -72 140
-24 124 58 -5 24 1 34 38 67 23 21 124 115 223 209 292 277 348 330 360 341 7
6 88 82 181 171 302 287 279 269 338 270 49 0 54 -2 83 -40 18 -23 45 -57 61
-76 17 -19 82 -98 146 -175 l116 -140 -6 -45 c-4 -37 -1 -51 16 -73 43 -55
110 -21 110 56 1 40 5 46 88 121 48 44 137 127 198 185 61 58 146 140 190 180
43 41 111 105 149 141 55 52 422 399 471 445 6 5 76 71 155 145 78 74 150 142
160 151 12 12 29 15 70 11 l53 -5 136 -141 c337 -348 319 -329 320 -363 0 -38
33 -73 67 -73 35 0 63 34 63 78 1 42 -7 32 224 277 179 189 255 269 450 478
60 64 115 117 122 117 7 0 20 -26 28 -57 27 -96 38 -136 52 -181 8 -23 14 -49
14 -57 0 -8 5 -15 10 -15 6 0 10 4 10 9 0 5 97 206 216 446 119 240 214 438
213 440 -2 2 -24 -8 -49 -22z"/>
<path d="M9763 10000 c-36 -14 -27 -29 15 -25 20 1 39 3 41 4 6 2 -21 31 -28
30 -3 0 -16 -4 -28 -9z"/>
<path d="M9556 9941 c-10 -10 -14 -21 -9 -23 11 -6 74 28 66 36 -12 12 -40 6
-57 -13z"/>
<path d="M9762 9938 c2 -12 10 -23 18 -23 22 0 19 39 -3 43 -15 3 -18 -1 -15
-20z"/>
<path d="M9582 9897 c-15 -17 1 -42 23 -33 18 6 17 37 -1 43 -6 2 -16 -2 -22
-10z"/>
<path d="M11020 8350 c0 -937 4 -1510 9 -1510 6 0 12 4 15 9 3 5 84 48 179 96
94 48 195 100 222 115 28 15 113 60 190 100 227 118 425 221 510 267 44 24
101 53 128 65 l47 22 0 893 0 893 -22 -10 c-31 -13 -170 -40 -205 -40 -15 0
-50 7 -77 15 -67 20 -103 19 -137 -6 -16 -11 -29 -16 -29 -11 0 6 7 12 15 16
24 9 19 39 -5 33 -11 -3 -20 -1 -20 4 0 5 -9 9 -20 9 -11 0 -37 15 -57 33 -21
17 -58 48 -83 67 -74 57 -80 63 -129 125 -45 56 -131 204 -131 225 0 5 -5 21
-12 37 -7 15 -12 35 -12 43 -1 13 -30 15 -189 18 l-187 2 0 -1510z m744 934
c-11 -17 -20 -22 -27 -15 -12 12 8 41 29 41 12 0 11 -5 -2 -26z m62 -9 c17
-16 14 -18 -10 -9 -9 3 -16 10 -16 15 0 13 9 11 26 -6z m-39 -32 c-1 -16 3
-40 7 -55 5 -19 4 -28 -3 -28 -6 0 -11 9 -11 19 0 11 -7 26 -15 35 -19 18 -19
21 1 40 20 21 21 21 21 -11z m147 -6 c-3 -9 -16 -12 -37 -8 l-32 5 30 7 c45
10 45 10 39 -4z m75 -23 c43 -17 58 -39 40 -60 -15 -18 -39 -6 -36 19 1 16 -4
23 -20 25 -12 2 -24 10 -27 18 -7 18 -5 18 43 -2z m-64 -14 c3 -5 0 -10 -7
-11 -10 0 -10 -2 0 -6 22 -9 14 -35 -10 -31 -18 2 -22 -1 -20 -15 2 -11 -4
-27 -13 -37 -15 -17 -15 -23 -3 -67 13 -42 13 -51 1 -62 -8 -7 -17 -10 -21 -6
-4 4 -1 10 6 12 6 3 9 9 6 14 -3 6 -11 5 -20 -2 -9 -7 -14 -8 -14 -1 0 6 -5
23 -12 39 -6 15 -12 30 -12 33 -1 3 -7 20 -15 38 -10 23 -11 36 -3 44 18 18
30 0 37 -53 5 -32 10 -47 15 -39 5 8 4 24 -1 37 -15 40 -11 55 11 48 14 -5 20
-2 20 10 0 17 30 64 42 65 4 0 10 -4 13 -10z"/>
<path d="M9740 9774 c-14 -8 -35 -14 -47 -14 -26 0 -31 -25 -7 -34 32 -12 53
-5 74 23 24 34 16 44 -20 25z"/>
<path d="M10330 8411 c-67 -38 -250 -78 -415 -91 -117 -10 -105 -7 -105 -24 0
-34 27 -40 138 -28 196 21 242 24 242 14 0 -5 -30 -12 -67 -15 -38 -4 -116
-11 -175 -17 -60 -5 -156 -15 -215 -20 -60 -6 -151 -15 -203 -20 -52 -5 -151
-14 -220 -20 -133 -12 -144 -16 -208 -77 -95 -91 -112 -342 -62 -914 11 -123
20 -293 20 -376 0 -84 4 -153 8 -153 10 0 42 125 42 163 0 15 -6 27 -12 27
-33 1 23 18 79 24 62 7 110 -5 98 -24 -3 -4 1 -38 9 -74 l14 -67 -37 -38 c-74
-77 -166 -120 -218 -100 -21 8 -28 2 -73 -59 -80 -110 -78 -147 9 -118 84 27
81 31 82 -101 1 -65 0 -556 -1 -1090 -1 -702 1 -973 9 -973 6 0 11 4 11 9 0 5
28 38 63 74 34 35 103 109 152 163 50 54 122 133 160 174 168 182 303 326 335
360 19 20 59 63 89 95 30 33 84 92 120 130 36 39 113 121 171 184 58 63 124
135 147 160 l43 46 0 382 c0 358 -1 383 -17 381 -53 -4 -133 3 -133 13 0 5 19
19 43 30 23 11 49 24 57 29 8 5 23 11 33 14 16 5 17 50 17 768 0 655 2 774 16
843 11 57 14 107 10 172 -10 150 -16 166 -56 144z m-948 -518 c-3 -16 -7 -22
-10 -15 -4 13 4 42 11 42 2 0 2 -12 -1 -27z m785 -9 c-3 -3 -12 -4 -19 -1 -8
3 -5 6 6 6 11 1 17 -2 13 -5z m-800 -111 c-3 -10 -5 -4 -5 12 0 17 2 24 5 18
2 -7 2 -21 0 -30z m-30 -35 c-3 -7 -5 -2 -5 12 0 14 2 19 5 13 2 -7 2 -19 0
-25z m453 12 c0 -5 -5 -10 -11 -10 -5 0 -7 5 -4 10 3 6 8 10 11 10 2 0 4 -4 4
-10z m-423 -87 c-3 -10 -5 -2 -5 17 0 19 2 27 5 18 2 -10 2 -26 0 -35z m320
-35 c-3 -8 -6 -5 -6 6 -1 11 2 17 5 13 3 -3 4 -12 1 -19z m-320 -35 c-3 -10
-5 -2 -5 17 0 19 2 27 5 18 2 -10 2 -26 0 -35z m971 -48 c1 -41 -3 -77 -7 -80
-12 -7 -24 87 -16 125 12 53 22 32 23 -45z m-131 -58 c16 -3 23 0 23 11 0 12
3 13 11 5 7 -7 8 -17 1 -28 -5 -10 -7 -37 -4 -61 3 -28 1 -44 -6 -44 -16 0
-27 23 -14 28 7 2 12 13 12 25 l-1 22 -18 -22 c-11 -13 -26 -23 -34 -23 -9 0
-18 -6 -20 -12 -3 -8 -6 -7 -6 4 -1 9 4 20 10 23 7 5 4 14 -7 26 -11 13 -13
19 -5 19 7 0 11 6 9 13 -3 6 -10 12 -16 12 -17 0 -17 7 -1 32 l14 23 14 -24
c8 -14 25 -26 38 -29z m-152 -77 c5 -16 -4 -32 -34 -65 -36 -39 -40 -47 -29
-64 6 -10 28 -27 47 -36 20 -9 33 -14 29 -9 -9 8 9 34 23 34 5 0 4 -11 -1 -25
-7 -18 -6 -25 3 -26 27 -1 -30 -18 -65 -18 -32 -1 -39 3 -53 32 -23 49 -26 79
-11 96 8 9 17 27 21 40 6 18 9 20 16 10 5 -8 9 -11 10 -6 5 28 20 57 29 57 5
0 12 -9 15 -20z m215 -20 c0 -5 -4 -10 -10 -10 -5 0 -10 5 -10 10 0 6 5 10 10
10 6 0 10 -4 10 -10z m59 -44 c10 -11 10 -37 2 -75 -1 -2 -8 2 -16 9 -11 9
-13 16 -5 24 15 15 12 36 -5 36 -8 0 -15 5 -15 10 0 15 26 12 39 -4z m-161
-71 c12 -27 28 -32 35 -12 2 7 8 8 13 3 5 -5 4 -11 -3 -13 -7 -3 -13 -11 -13
-19 0 -8 -3 -14 -6 -14 -10 0 -34 28 -34 39 0 6 -10 11 -21 11 -18 0 -19 2 -9
15 17 21 25 19 38 -10z m82 -82 c0 -13 -4 -23 -10 -23 -5 0 -7 -7 -4 -15 4 -8
1 -15 -5 -15 -6 0 -11 -5 -11 -11 0 -19 -47 -57 -80 -64 -23 -5 -30 -3 -30 9
0 9 6 16 13 16 8 0 20 11 27 25 10 18 16 22 22 13 4 -7 8 -11 9 -8 0 3 2 13 4
23 6 29 35 68 47 61 7 -4 8 2 3 17 -5 19 -4 21 4 9 6 -8 11 -25 11 -37z m-853
-10 c-3 -10 -5 -4 -5 12 0 17 2 24 5 18 2 -7 2 -21 0 -30z m290 -175 c-2 -13
-4 -5 -4 17 -1 22 1 32 4 23 2 -10 2 -28 0 -40z m221 29 c33 -30 27 -54 -25
-108 -51 -52 -73 -61 -73 -29 0 13 7 20 19 20 11 0 28 13 38 30 9 17 25 30 35
30 10 0 18 4 18 10 0 5 -7 7 -15 4 -8 -4 -23 -3 -32 0 -14 6 -15 9 -4 15 7 5
10 14 7 20 -10 16 -36 13 -36 -4 0 -8 -8 -15 -19 -15 -19 0 -31 -25 -31 -69 0
-16 -4 -21 -15 -17 -20 7 -19 4 10 -30 14 -16 25 -33 25 -38 0 -5 7 -3 15 4
13 10 19 10 33 -3 16 -15 21 -15 46 -2 16 8 34 15 41 15 8 0 15 10 17 22 3 25
28 37 28 14 0 -29 -23 -65 -44 -68 -11 -2 -21 -10 -21 -18 0 -10 -14 -17 -42
-21 -24 -3 -43 -2 -43 2 0 4 -11 10 -25 13 -14 4 -25 12 -25 19 0 6 -9 23 -20
37 -11 14 -20 39 -20 55 0 41 35 115 55 115 8 0 15 5 15 10 0 18 64 8 88 -13z
m-221 -109 c-2 -13 -4 -5 -4 17 -1 22 1 32 4 23 2 -10 2 -28 0 -40z m-270 -35
c-2 -16 -4 -3 -4 27 0 30 2 43 4 28 2 -16 2 -40 0 -55z m319 -64 c10 -8 25
-25 32 -38 16 -28 19 -121 4 -147 -8 -15 -10 -2 -9 56 2 72 0 76 -31 110 -17
19 -32 29 -32 22 0 -6 -4 -12 -10 -12 -5 0 -10 14 -10 30 0 29 1 29 18 12 10
-10 27 -25 38 -33z m-102 -21 c2 -7 9 -38 16 -69 l12 -56 -43 -42 c-65 -61
-124 -94 -174 -95 -48 -1 -87 22 -61 36 57 32 110 186 70 202 -16 7 -14 10 16
21 47 17 159 19 164 3z m101 -55 c21 -50 11 -53 -11 -4 -17 36 -31 46 -56 42
-5 0 -8 6 -8 14 0 29 58 -12 75 -52z m15 -83 c0 -5 -5 -10 -11 -10 -5 0 -7 5
-4 10 3 6 8 10 11 10 2 0 4 -4 4 -10z m-17 -52 c15 1 27 1 27 -2 0 -5 -60 -66
-65 -66 -1 0 -3 10 -3 23 -1 12 -4 38 -7 57 -6 34 -6 34 7 10 11 -19 21 -24
41 -22z m-396 -10 c-3 -8 -6 -5 -6 6 -1 11 2 17 5 13 3 -3 4 -12 1 -19z m18
-57 c3 -5 1 -12 -5 -16 -5 -3 -10 1 -10 9 0 18 6 21 15 7z m-111 -62 c13 -15
15 -24 7 -32 -16 -16 -13 -37 5 -37 11 0 13 6 9 19 -5 15 -1 19 13 18 19 -1
19 -2 0 -33 -10 -17 -16 -39 -12 -48 3 -9 1 -16 -4 -16 -6 0 -12 8 -15 18 -3
14 -6 12 -17 -10 -7 -15 -16 -26 -20 -23 -3 2 -3 -18 0 -45 5 -35 3 -51 -6
-54 -7 -3 -13 3 -12 12 0 9 -3 33 -7 52 -6 30 -3 40 22 65 32 34 44 105 17
105 -8 0 -14 -10 -14 -22 0 -21 0 -21 -19 -2 -19 19 -19 19 3 36 27 22 28 22
50 -3z m364 -19 c-13 -21 -48 -28 -48 -10 0 6 7 10 15 10 8 0 15 5 15 10 0 6
7 10 15 10 13 0 13 -3 3 -20z m-41 -26 c13 -4 21 -10 18 -14 -6 -10 -55 0 -55
11 0 10 7 11 37 3z m-28 -23 c7 -5 10 -14 6 -21 -5 -7 -11 -8 -17 -2 -9 9 -64
-4 -78 -18 -3 -3 -14 -7 -24 -8 -33 -6 0 26 35 33 16 4 29 11 29 16 0 11 31
12 49 0z m-49 -51 c0 -5 -4 -10 -10 -10 -5 0 -10 5 -10 10 0 6 5 10 10 10 6 0
10 -4 10 -10z m-102 -50 c35 -42 40 -60 17 -60 -8 0 -15 -9 -15 -20 0 -24 -15
-27 -24 -4 -10 25 -7 34 9 28 10 -4 15 0 15 15 0 22 -26 29 -32 9 -2 -6 -10
-8 -16 -4 -17 10 -15 26 3 26 8 0 15 7 15 15 0 8 -9 15 -20 15 -11 0 -20 -7
-20 -15 0 -8 -4 -15 -10 -15 -5 0 -10 9 -10 21 0 11 4 18 8 15 4 -2 14 -1 22
5 21 13 22 12 58 -31z m-214 -35 c-4 -8 -8 -15 -10 -15 -2 0 -4 7 -4 15 0 8 4
15 10 15 5 0 7 -7 4 -15z m61 -54 c3 -5 1 -12 -5 -16 -5 -3 -10 1 -10 9 0 18
6 21 15 7z m135 -29 c0 -10 -18 -27 -41 -39 l-40 -22 -9 24 c-5 13 -17 28 -27
34 -14 8 -7 10 34 11 28 0 55 5 58 10 9 14 25 2 25 -18z m-120 -33 c0 -5 -7
-6 -15 -3 -8 4 -15 13 -15 21 0 13 3 13 15 3 8 -7 15 -16 15 -21z m-150 -68
c0 -44 -4 -82 -9 -85 -5 -3 -9 32 -10 79 0 48 4 85 9 85 6 0 10 -35 10 -79z
m108 4 c44 -26 44 -26 26 -46 -9 -10 -22 -19 -28 -19 -6 0 -5 5 2 12 18 18 15
28 -8 28 -11 0 -20 -4 -20 -10 0 -5 -13 -8 -30 -7 -22 1 -30 7 -30 21 0 15 3
16 14 7 25 -21 25 4 0 28 -50 48 -22 43 74 -14z"/>
<path d="M10180 7450 c0 -5 5 -10 10 -10 6 0 10 5 10 10 0 6 -4 10 -10 10 -5
0 -10 -4 -10 -10z"/>
<path d="M9835 6820 c28 -12 47 -12 40 0 -3 6 -18 10 -33 9 -24 0 -25 -1 -7
-9z"/>
<path d="M7104 8341 c-2 -2 -4 -537 -4 -1188 l0 -1184 76 -92 c42 -51 93 -112
113 -136 20 -24 43 -51 52 -60 19 -20 123 -143 169 -201 19 -24 53 -65 75 -90
22 -26 72 -84 110 -130 39 -46 82 -96 96 -112 14 -16 46 -56 70 -88 28 -38 55
-63 74 -69 17 -5 24 -10 17 -10 -17 -1 17 -50 85 -121 28 -30 65 -74 80 -96
15 -23 47 -63 70 -90 54 -63 152 -181 179 -217 12 -15 25 -27 28 -27 3 0 6
880 6 1955 l0 1955 -646 2 c-355 2 -648 1 -650 -1z m76 -901 c0 -11 -7 -20
-15 -20 -8 0 -15 9 -15 20 0 11 7 20 15 20 8 0 15 -9 15 -20z m5 -81 c-6 -25
-4 -26 42 -28 26 -1 52 -6 58 -13 7 -8 6 -9 -4 -3 -9 5 -12 4 -7 -3 9 -15 36
-16 36 -2 0 6 9 10 20 10 24 0 25 -4 3 -30 -14 -16 -30 -20 -75 -20 -32 0 -58
4 -58 10 0 6 -4 10 -10 10 -5 0 -10 -9 -10 -20 0 -11 -4 -20 -10 -20 -19 0
-10 39 11 45 16 5 18 10 10 18 -9 9 -14 9 -20 -1 -7 -11 -8 39 -2 88 1 13 2
13 11 0 6 -8 8 -27 5 -41z m-35 -73 c0 -7 -5 -17 -10 -22 -12 -12 -3 -44 11
-44 5 0 9 -5 9 -10 0 -7 -6 -7 -20 0 -26 14 -30 103 -5 94 8 -4 15 -12 15 -18z
m66 -104 c-9 -2 -16 -8 -16 -14 0 -6 -6 -6 -15 2 -17 14 -21 35 -5 25 6 -3 10
4 10 17 l1 23 20 -25 c19 -22 19 -25 5 -28z m-56 -94 c0 -4 -5 -7 -12 -5 -6 1
-15 -9 -19 -23 -5 -18 -6 -12 -4 20 2 25 4 47 4 50 2 7 31 -32 31 -42z"/>
<path d="M13435 7108 c-16 -12 -46 -38 -65 -56 -46 -45 -70 -53 -114 -41 -71
20 -99 -11 -109 -117 -4 -51 -12 -72 -51 -131 -58 -86 -66 -127 -37 -183 14
-28 21 -59 21 -99 0 -69 18 -98 82 -131 67 -34 98 -68 98 -108 0 -32 2 -34 25
-28 14 4 50 17 80 31 44 19 55 29 55 48 0 13 7 32 15 43 24 32 17 104 -10 104
-41 0 -95 103 -95 182 0 20 -8 50 -17 68 -18 30 -17 31 4 48 15 12 22 30 24
62 3 59 15 80 44 80 15 0 37 16 64 46 42 48 71 54 71 15 0 -11 15 -32 34 -46
19 -15 42 -46 54 -75 l21 -50 -23 6 c-13 3 -27 1 -31 -6 -10 -17 -1 -21 47
-25 24 -2 46 -4 50 -4 8 -1 22 -39 22 -61 1 -11 11 -14 42 -12 32 3 43 -1 48
-14 9 -22 -19 -64 -44 -64 -33 0 -83 -90 -102 -185 -9 -46 -9 -58 2 -65 7 -5
16 -28 19 -51 l6 -43 85 -36 c47 -19 102 -45 122 -57 49 -32 90 -30 130 6 33
29 33 30 31 116 -3 80 -1 90 22 117 14 16 25 41 25 54 0 13 -20 64 -45 113
-50 98 -51 104 -31 152 18 44 7 73 -49 125 -37 34 -45 48 -45 77 0 37 -3 41
-80 90 -19 13 -42 38 -51 56 -22 47 -42 55 -144 57 -49 1 -108 5 -130 9 -33 6
-45 3 -70 -17z"/>
<path d="M13366 6805 c4 -8 11 -15 18 -15 6 0 21 -3 34 -6 26 -7 32 20 6 30
-31 12 -64 7 -58 -9z"/>
<path d="M13378 6748 c-8 -21 2 -38 22 -38 19 0 30 17 23 38 -3 6 -13 12 -23
12 -10 0 -20 -6 -22 -12z"/>
<path d="M13572 6718 c-26 -26 -7 -62 26 -51 16 6 16 38 -1 52 -10 8 -17 7
-25 -1z"/>
<path d="M13415 6570 c-8 -14 10 -36 34 -43 10 -2 31 1 47 8 l29 12 -40 8
c-22 4 -45 12 -52 17 -7 6 -14 5 -18 -2z"/>
<path d="M12261 6108 c-30 -68 -75 -175 -101 -238 -26 -63 -61 -144 -77 -180
-71 -156 -165 -372 -251 -577 -26 -62 -52 -113 -58 -113 -6 0 -14 19 -17 43
-4 23 -15 103 -27 177 -11 74 -25 168 -31 209 -6 41 -17 91 -25 111 -8 20 -16
66 -17 103 -3 70 -11 92 -21 59 -4 -11 -27 -38 -52 -61 -33 -29 -44 -47 -42
-64 2 -15 9 -21 21 -19 20 3 23 -14 3 -21 -14 -6 -11 -47 3 -47 18 1 31 19 25
36 -6 18 -6 18 9 -1 14 -18 14 -22 0 -38 -9 -9 -13 -20 -10 -24 4 -3 7 -3 7 2
0 4 7 2 15 -5 16 -13 21 -35 6 -25 -5 3 -11 -7 -13 -22 -2 -20 -9 -29 -25 -31
-27 -4 -30 14 -8 42 20 26 19 28 -10 62 -45 51 -47 54 -33 54 9 0 9 3 0 12
-15 15 -79 -34 -101 -78 -8 -16 -32 -42 -52 -56 -29 -21 -78 -88 -67 -92 2 -1
17 -11 35 -24 36 -24 54 -27 70 -11 10 10 16 8 62 -18 2 -2 -2 -9 -9 -18 -14
-17 -56 -20 -65 -5 -3 6 -15 10 -26 10 -10 0 -19 -4 -19 -10 0 -5 -5 -10 -10
-10 -7 0 -7 6 0 20 9 16 6 22 -20 35 -39 20 -77 10 -95 -26 -8 -15 -25 -35
-37 -43 -12 -9 -57 -55 -100 -102 l-78 -86 0 -603 0 -603 56 -54 c87 -83 239
-343 282 -483 32 -104 37 -169 18 -250 -18 -74 -50 -138 -99 -194 l-29 -34 45
-12 c44 -11 113 -55 130 -81 4 -7 13 -19 20 -26 54 -58 61 -182 15 -264 -2 -2
192 -5 430 -5 l432 0 3 1900 c1 1046 0 1901 -3 1901 -3 0 -30 -55 -59 -122z
m-636 -477 c-3 -10 1 -24 10 -31 8 -7 12 -16 9 -21 -3 -6 -15 2 -26 16 -16 21
-18 28 -8 40 17 20 23 19 15 -4z m-187 -244 c2 -12 -1 -15 -12 -11 -19 7 -22
38 -3 32 6 -3 13 -12 15 -21z m52 8 c0 -8 -6 -15 -14 -15 -8 0 -16 7 -20 15
-4 10 1 15 14 15 11 0 20 -7 20 -15z m46 -44 c-4 -6 -20 -11 -37 -11 -21 0
-29 5 -29 18 0 12 3 13 8 5 6 -10 12 -10 28 1 20 15 41 6 30 -13z m-130 -44
c4 -4 0 -7 -9 -7 -9 0 -18 4 -21 9 -7 10 20 9 30 -2z m-96 -85 c-14 -9 -32
-17 -40 -17 -8 0 -16 -8 -18 -18 -2 -10 3 -17 12 -17 9 0 16 -7 16 -15 0 -8
-8 -15 -17 -15 -13 0 -11 -4 7 -13 30 -15 42 -67 15 -67 -11 0 -15 6 -11 18 7
23 -8 47 -24 37 -10 -6 -11 -1 -6 19 3 14 3 26 -2 26 -5 0 -14 12 -20 26 -11
23 -10 25 10 22 15 -2 22 2 20 10 -1 8 3 12 10 10 15 -5 38 15 38 33 0 9 5 8
17 -4 16 -16 16 -18 -7 -35z m910 -2013 c12 -16 19 -33 16 -36 -3 -4 -6 -1 -6
5 0 7 -7 12 -15 12 -20 0 -19 -20 2 -35 9 -7 13 -17 8 -24 -11 -19 -45 42 -38
70 5 17 3 21 -9 17 -9 -4 -15 0 -15 8 0 25 35 15 57 -17z m66 -107 c0 -23 -3
-42 -8 -42 -4 0 -8 7 -8 15 0 8 -7 15 -15 15 -8 0 -15 5 -15 10 0 6 5 10 10
10 6 0 10 9 10 21 0 12 5 19 13 17 7 -3 12 -22 13 -46z m-62 -19 c-3 -10 -10
-28 -16 -40 -7 -15 -7 -31 1 -54 15 -42 14 -49 -5 -49 -9 0 -14 -6 -11 -12 2
-7 8 -12 13 -11 5 0 15 -5 22 -13 11 -12 9 -14 -11 -14 -15 0 -31 9 -39 23
-19 29 -22 122 -5 139 7 7 16 21 20 31 3 9 13 17 21 17 10 0 13 -6 10 -17z
m-198 -180 c-10 -10 -86 9 -86 21 0 24 12 25 51 4 22 -11 38 -23 35 -25z m239
7 c3 -5 1 -10 -4 -10 -6 0 -11 5 -11 10 0 6 2 10 4 10 3 0 8 -4 11 -10z m-335
-15 c0 -8 5 -15 10 -15 6 0 10 5 10 10 0 6 5 10 10 10 6 0 10 -7 10 -15 0 -8
-4 -15 -10 -15 -15 0 -12 -30 4 -36 7 -3 22 -25 32 -50 10 -24 24 -44 31 -44
7 0 13 -6 13 -12 0 -7 10 4 22 25 12 20 28 37 35 37 21 0 15 -25 -12 -48 -14
-12 -25 -28 -25 -35 0 -8 -11 -13 -27 -12 -16 0 -31 -4 -35 -10 -5 -5 -6 13
-3 40 2 28 2 41 -1 30 -11 -37 -24 -40 -30 -7 -4 18 -9 32 -13 32 -6 0 -15 28
-38 113 -2 9 0 17 6 17 6 0 11 -7 11 -15z m125 -25 c-3 -5 -10 -10 -16 -10 -5
0 -9 5 -9 10 0 6 7 10 16 10 8 0 12 -4 9 -10z m40 0 c3 -5 1 -10 -4 -10 -6 0
-11 5 -11 10 0 6 2 10 4 10 3 0 8 -4 11 -10z m195 0 c0 -5 -7 -10 -15 -10 -8
0 -15 5 -15 10 0 6 7 10 15 10 8 0 15 -4 15 -10z m-187 -41 c21 0 21 -1 2 -8
-20 -8 -35 3 -34 24 0 6 3 4 6 -2 2 -7 14 -13 26 -14z m87 -19 c0 -11 5 -20
10 -20 6 0 10 7 10 15 0 8 4 15 9 15 14 0 21 -43 10 -56 -14 -17 -73 12 -65
33 3 8 6 19 6 24 0 5 5 9 10 9 6 0 10 -9 10 -20z m-133 -180 c1 -54 -7 -63
-24 -27 -27 54 -24 66 17 76 3 0 6 -22 7 -49z"/>
<path d="M5144 5991 c-2 -2 -4 -46 -4 -97 0 -79 3 -95 18 -103 32 -17 62 -88
62 -150 0 -46 -6 -66 -29 -103 -16 -25 -34 -49 -40 -52 -7 -5 -11 -43 -11
-100 0 -73 4 -96 16 -106 26 -22 62 -93 69 -136 9 -56 -12 -128 -51 -180 -32
-41 -34 -50 -34 -119 0 -71 1 -75 28 -89 58 -31 132 -128 132 -176 0 -25 4
-25 33 3 39 37 176 166 301 282 65 61 141 132 170 159 28 26 103 96 166 155
63 58 148 138 190 177 41 40 91 86 110 104 19 18 65 61 103 97 l67 66 -2 183
-3 184 -643 3 c-354 1 -646 0 -648 -2z m799 -28 c-29 -2 -78 -2 -110 0 -32 2
-8 3 52 3 61 0 87 -1 58 -3z m185 0 c-15 -2 -42 -2 -60 0 -18 2 -6 4 27 4 33
0 48 -2 33 -4z m-193 -23 c3 -5 1 -10 -4 -10 -6 0 -11 5 -11 10 0 6 2 10 4 10
3 0 8 -4 11 -10z m58 -10 c23 -27 21 -62 -4 -78 -16 -10 -19 -19 -14 -43 7
-32 -5 -38 -25 -14 -10 13 -10 19 4 34 9 10 14 25 10 35 -5 12 -2 15 10 10 21
-8 21 19 0 51 -20 30 -6 33 19 5z m-179 -53 c4 -39 3 -56 -4 -52 -5 3 -10 -1
-10 -9 0 -29 -15 -16 -28 24 -16 53 -16 59 11 80 12 10 22 18 23 17 1 -1 4
-28 8 -60z m-167 -14 c38 -43 58 -84 34 -68 -5 3 -12 -4 -16 -15 -3 -11 -13
-20 -21 -20 -16 0 -19 26 -4 35 18 11 12 46 -7 44 -34 -3 -41 1 -47 26 -7 26
-1 45 12 45 4 0 26 -21 49 -47z m360 -35 c-3 -8 -6 -5 -6 6 -1 11 2 17 5 13 3
-3 4 -12 1 -19z m-172 -35 c14 -14 24 -15 56 -6 31 8 41 7 51 -4 14 -18 -6
-35 -30 -25 -10 3 -13 1 -8 -6 12 -19 -35 -14 -71 8 -33 20 -39 30 -26 43 9 9
9 9 28 -10z m-109 -17 c3 -14 1 -33 -5 -43 -9 -16 -10 -15 -11 9 0 14 -3 33
-6 42 -3 9 -1 16 5 16 6 0 13 -11 17 -24z m-106 -97 c0 -32 -4 -49 -12 -50
-10 0 -10 -2 -1 -5 7 -3 9 -12 6 -20 -3 -8 0 -14 7 -14 7 0 10 8 7 20 -6 25
-3 25 20 0 10 -10 38 -22 61 -26 41 -6 42 -6 48 25 7 34 19 47 29 31 9 -15 25
-12 25 5 0 9 -11 20 -24 25 -16 6 -23 16 -23 35 0 29 15 29 31 0 6 -11 17 -24
24 -30 34 -27 -40 -118 -109 -134 -59 -14 -59 -14 -59 11 0 17 -3 19 -12 10
-15 -15 -38 2 -38 28 0 10 -7 23 -15 30 -16 13 -19 38 -9 64 8 21 21 20 28 -1
2 -10 2 0 -1 21 -4 28 -2 37 6 32 6 -4 11 -29 11 -57z m-210 -85 c24 -12 29
-19 19 -25 -12 -8 -12 -11 1 -18 9 -6 19 -6 27 1 9 7 21 4 42 -11 16 -12 33
-21 38 -21 22 1 122 -56 120 -69 -3 -20 -27 -26 -27 -8 0 23 -21 26 -52 8 -23
-13 -30 -13 -37 -3 -4 7 -12 12 -17 11 -22 -4 -33 2 -28 16 4 8 11 12 18 8 6
-3 3 3 -6 14 -10 11 -18 25 -18 31 0 7 -7 12 -16 12 -10 0 -14 -6 -10 -15 7
-19 -10 -20 -21 -1 -4 7 -25 16 -45 20 -33 6 -37 5 -31 -11 3 -10 15 -29 25
-42 21 -28 18 -36 -11 -26 -12 3 -24 18 -27 33 -4 15 -11 33 -17 39 -12 16 10
73 28 73 6 0 27 -7 45 -16z m21 -174 c8 -16 18 -26 26 -23 15 6 17 -16 4 -49
-5 -13 -12 -32 -16 -43 -5 -17 -9 -13 -21 20 -7 22 -14 50 -14 63 0 12 -6 22
-14 22 -13 0 -29 24 -21 32 15 15 45 3 56 -22z m77 -8 c2 -7 -3 -12 -12 -12
-9 0 -16 7 -16 16 0 17 22 14 28 -4z m-26 -150 c-2 -7 -10 -11 -16 -9 -17 6
-19 34 -4 51 11 12 14 11 19 -8 3 -11 4 -27 1 -34z"/>
<path d="M5785 5850 c3 -5 8 -10 11 -10 2 0 4 5 4 10 0 6 -5 10 -11 10 -5 0
-7 -4 -4 -10z"/>
<path d="M5680 5560 c0 -5 9 -10 21 -10 11 0 17 5 14 10 -3 6 -13 10 -21 10
-8 0 -14 -4 -14 -10z"/>
<path d="M5540 5476 c0 -9 7 -16 16 -16 9 0 14 5 12 12 -6 18 -28 21 -28 4z"/>
<path d="M13260 5933 c-14 -3 -34 -13 -45 -23 -11 -10 -50 -25 -87 -33 -59
-12 -69 -12 -82 1 -13 13 -19 13 -48 -1 -18 -8 -42 -17 -53 -19 -17 -3 -20
-11 -17 -43 5 -76 8 -81 63 -93 28 -7 62 -12 75 -12 21 0 23 3 14 19 -13 25
-13 61 0 61 6 0 10 -3 10 -8 0 -4 31 -40 68 -80 l68 -72 154 -3 c160 -2 174 0
267 45 67 33 143 127 143 178 0 27 -27 25 -35 -2 -32 -115 -126 -173 -312
-192 -17 -2 -35 0 -40 3 -5 3 -15 44 -22 91 -7 47 -17 109 -22 138 -10 50 -12
52 -42 51 -18 -1 -43 -4 -57 -6z"/>
<path d="M3389 5705 c-19 -14 -49 -42 -66 -62 l-33 -38 0 33 c0 21 -5 32 -15
32 -17 0 -30 -23 -39 -69 -8 -44 -23 -61 -52 -61 -12 0 -26 -5 -29 -10 -9 -14
13 -40 34 -40 15 0 17 -11 17 -82 -1 -74 3 -91 34 -158 19 -41 35 -75 35 -76
0 -1 15 -4 33 -7 37 -8 38 -7 47 76 4 37 11 57 20 57 7 0 18 21 25 50 8 33 16
48 23 43 25 -16 83 -33 115 -33 37 0 40 14 12 50 -11 14 -20 28 -20 32 0 7 38
3 135 -17 59 -11 60 -12 70 -53 15 -62 25 -62 25 1 0 31 5 59 11 63 6 3 9 17
6 30 -3 18 0 24 14 24 10 0 20 4 23 9 10 15 -43 70 -88 93 -52 26 -51 25 -36
43 19 23 -12 65 -49 65 -44 0 -131 -18 -164 -35 -28 -14 -29 -14 -23 5 3 11 9
29 12 40 9 29 -33 27 -77 -5z"/>
<path d="M12940 5680 c0 -5 9 -10 20 -10 11 0 20 5 20 10 0 6 -9 10 -20 10
-11 0 -20 -4 -20 -10z"/>
<path d="M12950 5642 c0 -12 19 -26 26 -19 2 2 -2 10 -11 17 -9 8 -15 8 -15 2z"/>
<path d="M12960 5581 c0 -6 5 -13 10 -16 6 -3 10 1 10 9 0 9 -4 16 -10 16 -5
0 -10 -4 -10 -9z"/>
<path d="M12972 5532 c-7 -5 -2 -55 16 -164 28 -170 32 -177 86 -150 15 7 38
11 50 8 11 -3 37 -1 56 3 35 9 80 19 199 42 47 9 65 17 69 31 5 21 6 21 30 9
56 -30 172 -36 283 -16 46 9 159 65 173 87 18 29 -1 31 -46 5 -92 -54 -212
-75 -328 -57 -36 6 -88 14 -115 18 -63 9 -146 59 -233 138 -18 16 -43 23 -103
28 -43 3 -89 10 -102 15 -13 5 -29 6 -35 3z"/>
<path d="M3633 5326 c-21 -19 -25 -27 -16 -36 9 -10 17 -9 34 4 13 9 32 13 45
10 28 -7 39 10 18 30 -22 23 -48 20 -81 -8z"/>
<path d="M3405 5270 c-20 -22 -14 -53 10 -44 8 3 15 10 15 15 0 5 16 9 35 9
28 0 35 4 35 20 0 17 -7 20 -38 20 -26 0 -45 -7 -57 -20z"/>
<path d="M11420 5275 c0 -8 7 -15 15 -15 9 0 12 6 9 15 -4 8 -10 15 -15 15 -5
0 -9 -7 -9 -15z"/>
<path d="M3660 5265 c-17 -20 -5 -45 20 -45 11 0 23 7 26 15 6 15 -11 45 -26
45 -4 0 -13 -7 -20 -15z"/>
<path d="M3452 5208 c-25 -25 -2 -55 33 -42 20 8 19 40 -1 48 -20 8 -18 8 -32
-6z"/>
<path d="M13138 5001 c-61 -96 -99 -271 -119 -536 -14 -197 -3 -465 42 -1005
13 -161 36 -409 49 -530 6 -52 19 -176 30 -274 11 -99 23 -183 27 -187 4 -4
67 -9 138 -11 l130 -3 -5 330 c-8 509 -6 1528 3 1549 4 10 10 17 12 14 15 -15
94 -431 175 -928 22 -135 45 -271 50 -302 23 -133 31 -181 56 -343 14 -93 31
-201 38 -240 l12 -70 81 3 c45 1 101 6 125 10 l43 8 3 159 c6 294 -27 1128
-59 1455 -43 455 -117 867 -165 919 -10 11 -64 14 -246 17 -128 3 -268 6 -312
8 l-78 3 -30 -46z"/>
<path d="M3115 4845 c-145 -36 -259 -108 -355 -222 -67 -80 -89 -121 -160
-298 -5 -11 -18 -57 -30 -103 -37 -145 -46 -343 -24 -544 6 -57 -2 -60 -54
-20 -46 35 -194 145 -327 241 -55 40 -111 81 -125 91 -25 19 -103 75 -318 232
-63 46 -166 121 -230 169 -144 105 -142 104 -142 85 0 -8 28 -35 63 -61 34
-25 69 -52 77 -58 8 -7 31 -23 50 -36 19 -14 67 -48 105 -76 39 -28 99 -73
135 -99 36 -26 72 -52 80 -59 8 -7 40 -30 70 -51 60 -43 126 -91 210 -153 30
-22 94 -69 143 -104 l87 -64 -57 -12 c-32 -6 -164 -28 -293 -48 -272 -43 -284
-46 -289 -70 -2 -15 1 -17 20 -11 13 4 51 11 84 16 33 5 89 14 125 21 36 6 90
15 120 19 30 4 84 13 120 19 36 7 93 16 127 20 34 5 65 11 70 14 5 3 38 -16
74 -43 35 -27 69 -49 74 -50 6 0 18 -37 28 -82 47 -227 154 -469 294 -663 24
-33 96 -113 160 -178 l116 -118 -13 -57 c-6 -31 -16 -73 -20 -92 -22 -97 -31
-140 -69 -325 -23 -110 -49 -229 -57 -264 -14 -53 -14 -65 -3 -77 23 -22 38
-2 54 72 16 71 41 180 70 294 9 36 20 83 24 105 7 35 51 227 66 294 5 21 8 22
23 8 28 -24 142 -82 217 -110 87 -33 192 -56 315 -71 107 -12 104 -9 82 -106
-90 -400 -105 -482 -92 -490 19 -12 36 4 43 38 9 38 29 131 72 322 21 91 40
179 44 195 l7 30 153 10 c84 6 155 7 157 3 3 -4 9 -60 14 -125 15 -182 -1
-164 147 -161 l127 3 12 45 c6 25 17 70 23 100 50 250 34 222 151 274 30 14
79 41 109 61 29 20 55 34 56 33 10 -10 25 -207 25 -325 0 -78 3 -144 8 -146 9
-6 329 47 338 56 1 1 6 65 11 142 l8 140 310 2 c215 1 313 -2 323 -9 9 -8 12
-26 8 -59 -7 -63 22 -104 104 -146 19 -10 42 -23 50 -29 28 -20 173 -57 290
-73 126 -18 561 -17 653 2 44 9 82 16 85 14 4 -1 18 6 32 15 14 9 50 21 80 27
36 8 72 24 105 49 47 35 50 41 53 87 l3 50 76 37 75 36 451 1 452 0 2 308 3
308 -76 90 c-42 50 -93 110 -114 135 -21 25 -49 59 -62 75 -12 17 -35 44 -50
60 -47 53 -68 78 -156 184 -48 58 -105 125 -128 150 -32 36 -182 217 -291 351
-76 93 -157 186 -168 193 -8 4 -30 31 -50 60 -19 29 -56 75 -82 104 -42 45
-59 66 -110 132 -10 13 -12 -67 -13 -380 l0 -397 38 -4 c87 -11 305 -75 352
-105 76 -47 100 -75 100 -119 0 -35 -5 -47 -35 -73 -105 -92 -325 -140 -650
-140 -265 0 -333 4 -388 23 -26 9 -66 16 -89 16 -25 0 -66 12 -105 30 -34 16
-68 30 -73 30 -6 0 -10 5 -10 10 0 6 -8 10 -19 10 -10 0 -37 19 -60 41 -51 52
-55 92 -13 137 37 39 130 85 220 108 l72 18 0 303 c0 167 -1 303 -3 303 -2 0
-35 -30 -73 -68 -38 -37 -103 -98 -144 -136 -41 -38 -109 -101 -150 -140 -41
-39 -107 -100 -145 -135 -39 -36 -106 -99 -150 -140 -44 -42 -141 -132 -214
-201 -186 -174 -297 -278 -348 -326 l-44 -42 -20 39 c-53 105 -155 195 -252
223 -13 4 -15 10 -8 23 16 30 38 86 51 128 12 37 71 193 91 240 5 11 27 67 49
125 22 58 50 124 62 148 31 62 23 66 -124 57 -126 -7 -621 -7 -648 1 -8 2 -21
18 -29 36 -92 221 -271 418 -469 517 -66 33 -191 81 -211 81 -8 0 -11 -18 -9
-57 l3 -58 75 -15 c106 -22 207 -75 242 -126 15 -22 52 -105 82 -185 31 -79
67 -166 80 -194 54 -113 54 -114 -9 -280 -90 -238 -87 -233 -106 -162 -6 23
-15 52 -20 65 -5 13 -9 33 -9 45 0 13 -4 27 -9 33 -7 8 -25 91 -50 244 -6 30
-15 88 -22 128 -13 76 -29 96 -29 36 0 -49 40 -291 60 -359 4 -16 16 -61 24
-98 9 -37 28 -93 42 -124 l26 -56 -26 -67 c-15 -37 -32 -73 -39 -81 -10 -11
-48 -13 -194 -11 -105 2 -183 7 -183 13 0 5 6 9 13 9 29 0 34 20 20 83 -7 34
-10 79 -7 99 5 35 4 38 -23 43 -15 3 -44 10 -63 15 -19 5 -62 14 -95 20 -33 6
-76 16 -96 21 -20 5 -50 9 -67 9 -17 0 -43 5 -58 10 l-27 11 5 189 c3 105 2
190 -2 190 -16 0 -22 -51 -27 -222 l-5 -177 23 -11 c13 -5 89 -22 169 -36 225
-40 242 -43 245 -46 2 -2 6 -42 9 -89 l7 -86 -48 -26 c-77 -42 -154 -78 -198
-92 -114 -37 -267 -57 -291 -37 -5 4 -27 14 -49 21 -82 27 -155 111 -184 211
-7 25 -17 56 -22 70 -12 37 -29 207 -29 298 0 83 23 270 41 337 6 22 13 51 16
65 13 55 86 181 121 210 54 45 229 128 287 136 56 8 65 15 65 61 0 17 5 35 10
38 42 26 -122 34 -215 10z m4135 -544 c0 -11 -4 -9 -14 4 -8 11 -12 24 -9 28
7 11 23 -12 23 -32z m-39 -12 c22 -11 17 -31 -6 -23 -13 5 -30 34 -19 34 3 0
14 -5 25 -11z m-50 -57 c-13 -25 -15 -75 -2 -68 5 3 14 -1 20 -8 19 -22 -6
-30 -35 -12 -19 13 -23 22 -18 44 11 47 28 82 37 73 5 -5 4 -18 -2 -29z
m-2868 -29 c-7 -2 -19 -2 -25 0 -7 3 -2 5 12 5 14 0 19 -2 13 -5z m37 -3 c0
-5 -2 -10 -4 -10 -3 0 -8 5 -11 10 -3 6 -1 10 4 10 6 0 11 -4 11 -10z m3017
-35 c-2 -30 -6 -35 -27 -35 -14 0 -34 -7 -44 -15 -21 -16 -101 -21 -92 -6 3 4
20 12 38 16 l33 8 -27 4 c-35 5 -37 23 -4 23 14 0 27 4 30 9 9 14 56 10 56 -5
0 -8 5 -14 10 -14 6 0 8 11 4 25 -5 19 -2 25 9 25 11 0 15 -9 14 -35z m63 6
c15 -29 12 -40 -10 -34 -13 3 -20 14 -20 29 0 29 15 31 30 5z m-4 -71 c8 0 14
-10 14 -21 0 -19 -3 -18 -30 12 -16 19 -30 39 -29 44 0 6 7 0 16 -12 8 -13 22
-23 29 -23z m-27 -101 c-20 -20 -36 -24 -31 -8 1 5 -2 9 -8 9 -5 0 -10 -6 -10
-14 0 -21 -20 -30 -33 -17 -14 14 24 52 53 54 11 1 20 8 20 17 1 12 3 12 15
-3 12 -16 11 -21 -6 -38z m-2778 -149 c36 -20 17 -90 -25 -90 -12 0 -36 33
-36 50 0 17 24 50 36 50 3 0 14 -5 25 -10z m1539 -450 c0 -12 86 -74 103 -75
25 -2 72 -18 78 -28 4 -5 21 -11 38 -13 18 -2 56 -11 86 -20 30 -8 64 -13 75
-9 11 3 20 3 20 -2 0 -23 358 -51 423 -34 23 6 96 13 162 16 109 4 143 9 213
30 19 6 23 3 28 -23 5 -24 17 -36 61 -58 92 -48 125 -109 91 -166 -35 -56 -89
-85 -230 -122 -158 -42 -442 -66 -593 -50 l-80 8 50 7 c28 4 82 8 122 8 177 2
419 60 508 121 45 31 65 76 65 144 0 39 -11 46 -32 19 -39 -53 -210 -108 -410
-133 -173 -22 -685 -1 -722 29 -6 5 -31 12 -56 16 -25 4 -56 15 -70 24 -14 9
-38 23 -55 31 -16 8 -46 27 -66 42 -95 73 -67 148 81 220 55 26 110 35 110 18z
m465 -110 c3 -5 1 -10 -4 -10 -6 0 -11 5 -11 10 0 6 2 10 4 10 3 0 8 -4 11
-10z m103 -17 c-10 -2 -26 -2 -35 0 -10 3 -2 5 17 5 19 0 27 -2 18 -5z m-1514
-99 c3 -8 2 -12 -4 -9 -6 3 -10 10 -10 16 0 14 7 11 14 -7z m13 -56 c-3 -8 -6
-5 -6 6 -1 11 2 17 5 13 3 -3 4 -12 1 -19z m-1846 -65 c13 -16 12 -17 -3 -4
-10 7 -18 15 -18 17 0 8 8 3 21 -13z m2829 -133 c0 -5 -4 -10 -10 -10 -5 0
-10 5 -10 10 0 6 5 10 10 10 6 0 10 -4 10 -10z m-98 -48 c16 -23 78 -56 136
-73 23 -7 42 -15 42 -19 0 -10 33 -18 235 -56 115 -21 478 -24 610 -4 175 25
319 76 375 131 36 37 57 29 41 -15 -22 -56 -74 -93 -182 -129 -156 -52 -233
-62 -519 -61 -239 0 -276 2 -380 23 -248 51 -389 126 -390 209 0 18 17 15 32
-6z m17 -221 c57 -54 219 -106 423 -136 132 -20 467 -20 591 0 178 29 293 67
354 120 42 35 53 36 53 2 0 -48 -57 -102 -142 -132 -94 -34 -126 -43 -193 -54
-261 -43 -495 -41 -760 5 -200 35 -368 120 -375 189 -5 45 6 46 49 6z m-53
-92 c-7 -92 50 -148 201 -198 186 -62 399 -87 653 -77 91 3 183 9 205 12 55 7
23 -13 -42 -27 -556 -117 -1318 46 -1176 251 23 34 41 47 88 70 67 31 75 28
71 -31z"/>
<path d="M10230 4738 c-14 -6 -40 -18 -57 -26 -18 -8 -33 -20 -33 -27 0 -8
-19 -26 -42 -42 -31 -20 -44 -37 -49 -62 -4 -18 -12 -38 -18 -44 -6 -6 -11
-26 -11 -43 0 -18 -4 -36 -10 -39 -5 -3 -10 -19 -10 -35 0 -16 5 -32 10 -35 6
-3 10 -14 10 -24 0 -29 28 -47 51 -33 10 7 29 12 42 12 23 0 67 33 67 50 0 6
8 10 18 10 23 0 52 30 52 53 0 22 16 22 24 1 5 -12 14 -15 39 -10 104 22 103
22 139 -33 36 -56 47 -60 72 -32 14 15 16 35 12 127 -5 121 -10 140 -37 155
-11 5 -19 18 -19 29 0 21 -8 24 -110 39 -36 6 -76 12 -90 15 -14 3 -36 0 -50
-6z"/>
<path d="M10334 4366 c-26 -20 -11 -31 39 -27 52 4 61 9 46 27 -15 18 -60 18
-85 0z"/>
<path d="M10370 4310 c0 -15 5 -20 18 -18 9 2 17 10 17 18 0 8 -8 16 -17 18
-13 2 -18 -3 -18 -18z"/>
<path d="M10138 4291 c-34 -30 -32 -55 1 -34 16 10 20 9 24 -8 7 -25 37 -25
37 1 0 12 -7 20 -17 20 -17 1 -17 1 0 11 21 12 23 39 2 39 -8 0 -29 -13 -47
-29z"/>
<path d="M10345 4130 c-10 -11 -31 -20 -47 -20 -17 0 -27 -4 -23 -10 3 -5 15
-10 27 -10 22 0 78 36 78 51 0 15 -16 10 -35 -11z"/>
<path d="M10126 4075 c-30 -27 -30 -29 -15 -56 7 -14 16 -18 30 -14 10 4 19 2
19 -3 0 -5 -16 -14 -36 -20 -35 -10 -36 -10 -31 14 2 13 2 24 0 24 -13 0 -113
-100 -144 -146 -12 -16 -37 -40 -55 -52 -35 -23 -47 -62 -19 -62 19 0 52 -63
36 -68 -6 -2 -11 -13 -12 -25 0 -19 -2 -18 -11 6 -7 19 -7 32 1 41 6 7 8 16 4
19 -12 13 -23 7 -23 -13 0 -22 -15 -27 -26 -8 -4 6 -2 14 4 16 14 4 16 32 2
32 -21 0 -95 -93 -96 -121 -1 -16 1 -29 5 -29 4 0 7 -8 8 -17 0 -10 5 -33 11
-50 6 -18 7 -33 3 -33 -5 0 -11 13 -14 30 -5 20 -11 28 -21 24 -22 -9 -30 33
-12 61 30 46 -3 25 -51 -32 -46 -56 -91 -101 -167 -171 -20 -19 -36 -38 -36
-43 0 -11 -28 -46 -60 -73 -37 -32 -109 -107 -138 -146 -15 -19 -63 -71 -107
-115 -44 -44 -88 -91 -96 -105 -14 -21 -16 -64 -17 -270 l-1 -245 271 2 c165
1 277 -2 284 -8 6 -5 14 -26 18 -47 11 -67 99 -157 216 -220 61 -32 211 -89
250 -94 l25 -3 -22 -13 c-12 -7 -45 -17 -74 -22 -82 -16 -135 -44 -168 -91
-54 -74 -33 -126 62 -150 60 -15 89 -7 244 66 108 51 126 66 102 81 -6 3 -31
34 -56 68 -25 33 -55 66 -66 73 -12 7 -16 12 -9 13 7 0 10 5 6 11 -4 7 44 61
117 131 123 119 169 151 281 193 27 10 45 22 41 28 -4 6 4 7 21 3 22 -5 35 0
67 27 22 19 56 55 76 81 19 25 41 46 47 46 6 0 40 27 74 59 35 32 86 69 113
82 l49 24 0 198 c0 113 4 206 10 217 7 13 7 21 0 25 -5 3 -10 35 -10 70 0 35
-4 66 -9 70 -16 9 -914 6 -923 -3 -5 -5 -9 -163 -8 -352 l0 -343 -32 6 c-59 9
-142 46 -193 85 -65 49 -131 149 -146 221 -25 118 16 345 90 506 17 37 31 68
31 70 0 11 99 146 134 184 42 45 153 131 169 131 5 0 15 6 22 14 8 7 52 25 99
40 47 16 86 33 86 39 0 21 -15 33 -43 35 -15 1 -38 7 -49 13 -27 15 -76 68
-84 91 -7 24 -16 23 -48 -7z m44 -14 c0 -6 13 -24 30 -42 16 -18 28 -34 26
-36 -6 -6 -36 9 -36 18 0 5 -9 18 -20 29 -22 22 -26 40 -10 40 6 0 10 -4 10
-9z m28 -110 c1 -1 -8 -11 -19 -22 -17 -17 -19 -23 -8 -31 12 -8 11 -9 -1 -6
-8 3 -17 18 -21 35 -6 29 -4 31 20 28 14 -2 27 -4 29 -4z m-232 -99 c-1 -24
-46 -72 -46 -49 0 9 6 20 13 24 8 4 16 16 20 26 8 22 15 22 13 -1z m44 -73 c0
-6 -4 -7 -10 -4 -5 3 -10 11 -10 16 0 6 5 7 10 4 6 -3 10 -11 10 -16z m-33 0
c15 -15 5 -39 -16 -39 -14 0 -14 2 -1 11 11 8 12 12 3 16 -14 5 -18 23 -5 23
4 0 13 -5 19 -11z m-147 -223 c0 -3 -4 -8 -10 -11 -5 -3 -10 -1 -10 4 0 6 5
11 10 11 6 0 10 -2 10 -4z m-20 -44 c0 -15 -2 -15 -10 -2 -13 20 -13 33 0 25
6 -3 10 -14 10 -23z m-172 -24 c9 -9 12 -9 12 1 0 7 5 9 10 6 6 -4 3 -15 -7
-29 l-17 -23 -13 25 c-7 13 -13 26 -13 28 0 8 17 3 28 -8z m64 -53 c-5 -31
-21 -42 -32 -24 -10 15 -3 32 11 24 5 -3 6 1 3 9 -4 10 -1 16 9 16 10 0 13 -8
9 -25z m38 -14 c0 -6 -4 -13 -10 -16 -5 -3 -10 1 -10 9 0 9 5 16 10 16 6 0 10
-4 10 -9z m22 -22 c-4 -13 -13 -25 -20 -27 -10 -2 -9 6 4 27 21 35 26 35 16 0z
m-176 -19 c26 -9 64 -57 64 -81 0 -18 -37 -51 -45 -39 -4 6 -2 17 4 24 9 10 8
15 -4 20 -8 3 -15 11 -15 18 0 9 3 8 10 -2 8 -13 10 -13 10 1 0 21 -26 43 -40
34 -5 -3 -10 -13 -10 -21 0 -8 -5 -14 -10 -14 -6 0 -8 11 -6 25 3 14 0 25 -6
25 -12 0 -47 -41 -48 -57 0 -6 -14 -16 -31 -22 -21 -7 -29 -7 -27 0 2 6 7 10
11 9 5 0 18 12 30 27 33 42 42 50 63 56 10 2 19 5 20 6 1 0 14 -4 30 -9z m127
-5 c-3 -9 -8 -14 -10 -11 -3 3 -2 9 2 15 9 16 15 13 8 -4z m-93 -150 c0 -18
-31 -42 -67 -49 -45 -10 -50 10 -7 30 20 9 38 23 41 30 6 15 33 7 33 -11z
m-329 -114 c-23 -23 -28 -12 -9 19 7 11 16 16 21 11 5 -5 0 -18 -12 -30z m24
-57 c-21 -27 -30 -33 -36 -23 -11 18 -11 32 -1 25 5 -3 16 9 26 25 13 22 21
28 29 20 7 -7 2 -21 -18 -47z m1270 1 c22 -18 26 -75 6 -99 -32 -39 -101 -6
-101 47 0 57 51 85 95 52z m-1385 -36 c0 -12 -29 -38 -43 -39 -4 0 0 11 9 25
17 26 34 33 34 14z m63 4 c4 -3 -1 -15 -10 -25 -16 -18 -16 -21 0 -47 13 -22
14 -31 4 -41 -9 -9 -6 -9 11 1 12 8 22 18 22 22 0 5 11 6 25 3 18 -5 25 -2 25
8 0 8 7 16 15 20 22 8 19 -26 -4 -46 -12 -10 -29 -14 -46 -10 -16 3 -26 1 -22
-5 3 -5 -6 -8 -21 -7 -43 2 -43 3 -32 25 15 26 4 38 -13 15 -12 -16 -14 -16
-31 3 -15 17 -16 23 -6 36 7 8 21 15 32 15 11 0 22 9 25 20 5 21 15 25 26 13z
m137 -39 c0 -8 -4 -12 -10 -9 -5 3 -10 13 -10 21 0 8 5 12 10 9 6 -3 10 -13
10 -21z m-289 -84 c5 0 9 5 9 10 0 6 7 10 15 10 9 0 15 -6 13 -14 -2 -8 5 -21
15 -28 30 -23 33 -86 5 -138 -19 -35 -28 -44 -46 -42 -12 2 -22 0 -23 -5 -5
-56 -19 -66 -19 -14 0 29 4 41 12 39 7 -3 23 7 36 21 14 14 28 25 33 24 5 -2
9 11 9 27 0 31 -19 43 -21 13 0 -15 -2 -15 -8 2 -5 11 -6 26 -3 33 6 17 -17
42 -39 42 -12 0 -19 7 -19 18 0 25 14 38 18 18 2 -9 8 -16 13 -16z m1069 -310
c0 -5 -12 -10 -26 -10 -14 0 -23 4 -19 10 3 6 15 10 26 10 10 0 19 -4 19 -10z
m297 -56 c-3 -3 -12 -4 -19 -1 -8 3 -5 6 6 6 11 1 17 -2 13 -5z m-284 -11 c-7
-2 -19 -2 -25 0 -7 3 -2 5 12 5 14 0 19 -2 13 -5z m84 -19 c-3 -3 -12 -4 -19
-1 -8 3 -5 6 6 6 11 1 17 -2 13 -5z m256 -41 c-7 -2 -19 -2 -25 0 -7 3 -2 5
12 5 14 0 19 -2 13 -5z"/>
<path d="M9730 3595 c0 -8 5 -15 10 -15 6 0 10 7 10 15 0 8 -4 15 -10 15 -5 0
-10 -7 -10 -15z"/>
<path d="M11098 3213 c7 -3 16 -2 19 1 4 3 -2 6 -13 5 -11 0 -14 -3 -6 -6z"/>
<path d="M13330 2270 c-99 -67 -166 -86 -240 -66 -35 9 -155 -88 -155 -124 0
-23 5 -25 48 -28 92 -6 357 62 390 100 12 15 17 38 17 84 0 35 -3 64 -7 64 -5
0 -28 -14 -53 -30z"/>
<path d="M13940 2270 c-99 -67 -167 -86 -240 -66 -21 6 -37 -2 -93 -49 -115
-95 -78 -125 109 -90 124 23 246 63 267 87 12 15 17 38 17 84 0 35 -3 64 -7
64 -5 0 -28 -14 -53 -30z"/>
<path d="M6040 2052 c0 -55 4 -72 21 -90 30 -33 87 -66 154 -89 53 -18 81 -26
175 -48 141 -32 498 -46 655 -24 110 15 246 46 308 72 104 42 137 81 137 162
0 44 -11 58 -27 31 -20 -34 -103 -67 -293 -117 -19 -5 -87 -13 -150 -19 -400
-35 -823 36 -947 158 l-33 33 0 -69z"/>
<path d="M11058 2087 c-7 -8 -36 -17 -63 -21 -28 -4 -66 -10 -85 -13 -19 -3
-73 -19 -120 -35 -47 -17 -100 -33 -119 -37 -34 -6 -34 -6 -10 -17 44 -20 235
-74 264 -74 8 0 17 11 21 24 6 24 6 24 37 7 87 -47 180 -81 222 -81 93 0 159
52 136 108 -12 27 -52 76 -82 99 -13 11 -157 52 -181 53 -4 0 -13 -6 -20 -13z
m-70 -107 c-7 -10 -14 -17 -17 -15 -4 4 18 35 25 35 2 0 -1 -9 -8 -20z"/>
<path d="M4406 1958 c-11 -6 -42 -11 -70 -12 l-51 -1 -9 -78 c-8 -65 -7 -81 6
-93 12 -12 56 -16 216 -21 185 -6 202 -5 208 11 16 41 -49 101 -181 170 -74
39 -89 42 -119 24z"/>
<path d="M5085 1955 c-22 -7 -54 -10 -71 -8 -29 5 -31 3 -37 -33 -13 -75 -8
-141 10 -148 9 -4 101 -9 204 -13 146 -5 192 -3 204 7 22 18 19 26 -24 73 -39
42 -203 138 -232 136 -8 -1 -32 -7 -54 -14z"/>
</g>
</svg>
